# xmcd CD database file
#
# Track frame offsets:
#	150
#	20087
#	25210
#	32682
#	61947
#	67895
#	105152
#	117957
#	177004
#	236659
#
# Disc length: 3159 seconds
#
# Revision: 0
# Processed by: cddbd v1.5.1PL2 Copyright (c) Steve Scherf et al.
# Submitted via: CDex 1.50beta9
#
DISCID=750c550a
DTITLE=Chick Corea - The Mad Hatter
DYEAR=1978
DGENRE=Jazz
TTITLE0=Woods
TTITLE1=Tweedle Dee
TTITLE2=The Trial
TTITLE3=Humpty Dumpty
TTITLE4=Prelude To Falling Alice
TTITLE5=Falling Alice
TTITLE6=Tweedle Dum
TTITLE7=Dear Alice
TTITLE8=The Mad Hatter Rhapsody
TTITLE9=Data
EXTD=YEAR: 1978
EXTT0=
EXTT1=
EXTT2=
EXTT3=
EXTT4=
EXTT5=
EXTT6=
EXTT7=
EXTT8=
EXTT9=
PLAYORDER=
